<?xml version="1.0" encoding="utf-8"?>
<!-- Generator: Adobe Illustrator 28.1.0, SVG Export Plug-In . SVG Version: 6.00 Build 0)  -->
<svg version="1.1" id="Capa_1" xmlns="http://www.w3.org/2000/svg" xmlns:xlink="http://www.w3.org/1999/xlink" x="0px" y="0px"
	 viewBox="0 0 222 132.5" style="enable-background:new 0 0 222 132.5;" xml:space="preserve">
<path d="M55.97,49.63c4.49,20.7-15.83,34.92-16.47,35.16c-0.88,0.32-1.79,0.6-1.79,0.6c0,0,0,0,0,0
	c-1.35,0.41,7.64,23.98,0.42,30.49c-2.97,2.68-9.08,2.83-12.22,0.12c-7.25-6.26,2.93-26.37-3.89-30.34
	c-0.95-0.55-1.7-0.07-1.98-0.58c-1.61-2.9,23.44-12.77,25.87-27.36c2.71-16.24-23.83-30.87-22.04-33.25
	C25.51,22.29,51.65,29.67,55.97,49.63z"/>
<circle cx="22.91" cy="52.05" r="9.25"/>
<g>
	<path d="M72.24,74.33c-0.03,0.71,0.12,1.36,0.46,1.95c0.42,0.72,1.09,1.1,2.03,1.13c0.8,0.03,1.77-0.03,2.89-0.18
		c1.12-0.14,2.06-0.21,2.85-0.21c1.62,0.03,2.43,0.5,2.44,1.4c-0.22,0.71-0.64,1.1-1.26,1.18l-3.75,0.5
		c-0.43,0.05-2.22,0.14-5.4,0.27l-0.33-0.01l-0.33,0.01c-0.28,0-0.5,0-0.67-0.01c-0.52-0.04-0.92-0.19-1.2-0.43
		c-0.62-0.55-0.87-1.41-0.75-2.58c0.02-0.21,0.06-0.46,0.1-0.74l0.07-0.36l0.07-0.36c0.11-0.6,0.16-1.06,0.17-1.37
		c0.02-0.99-0.14-1.5-0.47-1.53c-1.62,0.3-2.41,0.05-2.39-0.75c0.03-0.8,0.38-1.21,1.04-1.22c0.66,0,1.07-0.22,1.23-0.65
		c0.15-0.43,0.22-1.45,0.21-3.05l-0.05-2.22c-0.06-1.43,0.52-2.49,1.75-3.2c0.8-0.46,1.96-0.74,3.48-0.85
		c1.46-0.11,2.44-0.15,2.94-0.14h0.33l0.35,0.01c0.28,0.01,0.52,0.02,0.72,0.03c0.55,0.06,1.01,0.19,1.35,0.38
		c0.55,0.31,0.87,0.75,0.98,1.31c0.11,0.57-0.06,1.08-0.5,1.53c-0.39,0.38-0.87,0.68-1.45,0.91c-0.74,0.29-1.75,0.47-3.05,0.55
		l-0.36,0.02l-0.38,0.01c-0.29,0.02-0.53,0.05-0.72,0.08c-0.55,0.1-0.98,0.31-1.29,0.64c-0.49,0.49-0.72,1.17-0.69,2.03
		c0.03,0.92,0.4,1.46,1.12,1.62c0.99,0.22,2.05,0.14,3.18-0.24l0.38-0.12l0.38-0.14c0.3-0.1,0.56-0.18,0.76-0.24
		c0.58-0.15,1.11-0.21,1.57-0.17c1,0.11,1.56,0.47,1.69,1.1l-0.01,0.21c-0.03,0.61-0.47,1.01-1.33,1.2
		c-2.06,0.14-3.91,0.46-5.57,0.93C73.13,73.03,72.27,73.63,72.24,74.33z"/>
	<path d="M85.96,64.61c0.84,0.04,1.21,1.58,1.12,4.59c-0.03,0.99-0.11,2.11-0.24,3.38c-0.05,0.42-0.09,0.86-0.15,1.32
		c-0.01,0.08-0.02,0.16-0.03,0.25l-0.01,0.12l-0.01,0.1c-0.02,0.17-0.04,0.28-0.05,0.34c-0.02,0.12-0.03,0.32-0.05,0.6l-0.01,0.18
		l-0.01,0.19c-0.01,0.16-0.02,0.3-0.02,0.42c-0.05,0.74-0.12,1.34-0.22,1.81c-0.3,1.47-0.92,2.13-1.86,1.97
		c-0.65-0.11-1.06-0.55-1.25-1.33c-0.07-0.3-0.11-0.64-0.11-1.04c-0.01-0.27,0-0.58,0.03-0.96c0.05-0.63,0.09-1.47,0.15-2.52
		l0.07-1.26l0.08-1.25c0-0.08,0-0.2,0.01-0.34l0.01-0.19l0.01-0.22c0.02-0.37,0.03-0.7,0.06-0.99c0.07-0.89,0.17-1.66,0.31-2.31
		C84.2,65.57,84.92,64.61,85.96,64.61c0.06,0.01,0.07,0.01,0.02,0.01h-0.15c-0.07,0-0.1,0-0.09-0.01
		C85.76,64.61,85.83,64.61,85.96,64.61z"/>
	<path d="M97.72,64.53c0.61-0.19,1.14-0.08,1.61,0.33c0.44,0.39,0.68,0.92,0.73,1.57c0.05,0.63-0.06,1.49-0.35,2.57l-0.19,0.67
		l-0.19,0.65c-0.15,0.53-0.26,0.94-0.33,1.23c-0.17,0.72-0.44,1.66-0.82,2.81l-0.24,0.69l-0.23,0.69c-0.17,0.53-0.32,1-0.43,1.4
		c-0.28,0.99-0.74,1.81-1.39,2.46c-0.79,0.77-1.65,1.04-2.59,0.79c-0.45-0.12-0.8-0.59-1.06-1.4c-0.08-0.24-0.16-0.58-0.25-1.01
		l-0.06-0.23l-0.05-0.23c-0.04-0.16-0.07-0.29-0.1-0.38c-0.29-0.93-0.71-1.99-1.25-3.18c-0.19-0.42-0.44-0.94-0.74-1.56l-0.74-1.53
		l-0.06-0.1l-0.05-0.11l-0.11-0.23c-0.09-0.19-0.17-0.36-0.24-0.51c-0.19-0.42-0.33-0.81-0.42-1.15c-0.26-0.96-0.18-1.67,0.24-2.14
		c1.09-1.22,2.26-0.38,3.53,2.53c0.42,0.96,0.83,2.1,1.23,3.43c0.14,0.46,0.27,0.93,0.39,1.39c0.05,0.17,0.09,0.35,0.14,0.51
		c0.03,0.12,0.06,0.23,0.08,0.33c0.02,0.09,0.03,0.21,0.03,0.36v0.17l0.01,0.17c0.03,0.24,0.17,0.39,0.42,0.46
		c0.73,0.16,1.23-0.67,1.51-2.49c0.09-0.57,0.16-1.26,0.22-2.08c0.01-0.13,0.02-0.28,0.02-0.44l0.01-0.2l0.01-0.18
		c0.02-0.26,0.03-0.43,0.03-0.51c0.05-0.3,0.06-0.79,0.05-1.46l-0.01-0.4v-0.4c-0.01-0.3,0-0.57,0.02-0.8
		c0.1-1.25,0.57-2.05,1.42-2.43L97.72,64.53z"/>
	<path d="M103.82,64.61c0.84,0.04,1.21,1.58,1.12,4.59c-0.03,0.99-0.11,2.11-0.24,3.38c-0.05,0.42-0.09,0.86-0.15,1.32
		c-0.01,0.08-0.02,0.16-0.03,0.25l-0.01,0.12l-0.01,0.1c-0.02,0.17-0.04,0.28-0.05,0.34c-0.02,0.12-0.03,0.32-0.05,0.6l-0.01,0.18
		l-0.01,0.19c-0.01,0.16-0.02,0.3-0.02,0.42c-0.05,0.74-0.12,1.34-0.22,1.81c-0.3,1.47-0.92,2.13-1.86,1.97
		c-0.65-0.11-1.06-0.55-1.25-1.33c-0.07-0.3-0.11-0.64-0.11-1.04c-0.01-0.27,0-0.58,0.03-0.96c0.05-0.63,0.09-1.47,0.15-2.52
		l0.07-1.26l0.08-1.25c0-0.08,0-0.2,0.01-0.34l0.01-0.19l0.01-0.22c0.02-0.37,0.03-0.7,0.06-0.99c0.07-0.89,0.17-1.66,0.31-2.31
		C102.05,65.57,102.78,64.61,103.82,64.61c0.06,0.01,0.07,0.01,0.02,0.01h-0.15c-0.07,0-0.1,0-0.09-0.01
		C103.61,64.61,103.68,64.61,103.82,64.61z"/>
	<path d="M114.02,64.32c0.42-0.05,0.8,0.01,1.16,0.18c0.34,0.17,0.6,0.41,0.77,0.72c0.19,0.33,0.25,0.67,0.17,1.01
		c-0.08,0.38-0.31,0.71-0.69,1c-0.32,0.16-0.77,0.33-1.34,0.52l-0.65,0.22c-0.24,0.08-0.44,0.17-0.63,0.25
		c-0.72,0.33-1.17,0.57-1.34,0.73c-0.31,0.27-0.48,0.69-0.5,1.24c-0.02,0.24,0.05,0.57,0.18,0.98l0.08,0.26l0.09,0.26
		c0.06,0.21,0.1,0.39,0.12,0.55l0.15,0.52l0.17,0.55c0.13,0.44,0.23,0.8,0.3,1.09c0.22,0.86,0.33,1.62,0.33,2.3
		c0,1.21-0.52,2.16-1.57,2.84c-0.88,0.57-1.95,0.85-3.2,0.83l-0.36-0.01l-0.38-0.01c-0.3-0.02-0.56-0.06-0.77-0.11
		c-0.59-0.17-1-0.5-1.23-1.01c-0.17-0.4-0.14-0.81,0.11-1.23c0.17-0.27,0.45-0.55,0.83-0.84c0.25-0.1,0.62-0.13,1.1-0.1l0.3,0.02
		l0.31,0.02c0.24,0.02,0.43,0.03,0.57,0.03c0.76,0.01,1.1-0.27,1.04-0.82c-0.08-1.06-0.41-2.3-0.99-3.72
		c-0.52-1.33-0.61-2.68-0.25-4.05c0.31-1.18,1.17-2.12,2.56-2.81c0.43-0.2,1.03-0.45,1.82-0.73l0.44-0.16l0.44-0.17
		C113.48,64.55,113.76,64.44,114.02,64.32z"/>
	<path d="M122.54,64.32c0.42-0.05,0.8,0.01,1.16,0.18c0.34,0.17,0.6,0.41,0.77,0.72c0.19,0.33,0.25,0.67,0.17,1.01
		c-0.08,0.38-0.31,0.71-0.69,1c-0.32,0.16-0.77,0.33-1.34,0.52l-0.65,0.22c-0.24,0.08-0.44,0.17-0.63,0.25
		c-0.72,0.33-1.17,0.57-1.34,0.73c-0.31,0.27-0.48,0.69-0.5,1.24c-0.01,0.24,0.05,0.57,0.18,0.98l0.08,0.26l0.09,0.26
		c0.06,0.21,0.1,0.39,0.12,0.55l0.15,0.52l0.17,0.55c0.13,0.44,0.23,0.8,0.3,1.09c0.22,0.86,0.33,1.62,0.33,2.3
		c0,1.21-0.52,2.16-1.57,2.84c-0.88,0.57-1.95,0.85-3.2,0.83l-0.36-0.01l-0.38-0.01c-0.3-0.02-0.56-0.06-0.77-0.11
		c-0.59-0.17-1-0.5-1.23-1.01c-0.17-0.4-0.14-0.81,0.11-1.23c0.17-0.27,0.45-0.55,0.83-0.84c0.25-0.1,0.62-0.13,1.1-0.1l0.3,0.02
		l0.31,0.02c0.24,0.02,0.43,0.03,0.57,0.03c0.76,0.01,1.1-0.27,1.04-0.82c-0.08-1.06-0.41-2.3-0.99-3.72
		c-0.52-1.33-0.61-2.68-0.25-4.05c0.31-1.18,1.17-2.12,2.56-2.81c0.43-0.2,1.03-0.45,1.82-0.73l0.44-0.16l0.44-0.17
		C122,64.55,122.29,64.44,122.54,64.32z"/>
	<path d="M134.36,72.71c0.03,0.17,0.09,0.45,0.17,0.84l0.06,0.28l0.07,0.3c0.06,0.26,0.11,0.47,0.15,0.65
		c0.25,1.18,0.42,2.17,0.51,2.96c0.28,2.55-0.18,3.85-1.38,3.88c-0.73-0.02-1.12-0.41-1.18-1.17c-0.02-0.25-0.01-0.58,0.05-1
		l0.03-0.24l0.03-0.25c0.03-0.19,0.05-0.33,0.06-0.43c0.08-0.87-0.11-1.48-0.58-1.81c-0.36-0.25-1-0.39-1.92-0.41
		c-0.05,0-0.11,0-0.19-0.01h-0.1H130c-0.21-0.01-0.39-0.01-0.55-0.01c-0.49-0.01-0.92,0-1.29,0.01c-1.09,0.07-1.77,0.26-2.05,0.57
		c-0.22,0.24-0.43,0.56-0.62,0.95l-0.23,0.5l-0.22,0.5c-0.37,0.79-0.89,1.33-1.56,1.61c-0.7,0.29-1.17,0.21-1.41-0.24
		c-0.21-0.4-0.21-0.96,0.01-1.69c0.32-1.08,0.78-2.41,1.38-4l0.76-1.99c0.3-0.79,0.55-1.45,0.74-1.97l0.08-0.21l0.08-0.23
		c0.07-0.19,0.13-0.36,0.18-0.5c0.16-0.42,0.31-0.81,0.46-1.15c0.41-0.96,0.83-1.76,1.26-2.39c1.23-1.78,2.57-2.21,4.02-1.31
		c0.94,0.58,1.72,1.79,2.33,3.61c0.23,0.68,0.43,1.45,0.61,2.31C134.14,71.3,134.26,71.98,134.36,72.71z M130.56,73.92
		c0.89-0.27,1.3-0.86,1.23-1.79c-0.02-0.33-0.11-0.76-0.25-1.28l-0.1-0.32l-0.1-0.32c-0.08-0.27-0.14-0.48-0.18-0.62
		c-0.02-0.07-0.04-0.16-0.07-0.27l-0.03-0.15l-0.03-0.16c-0.06-0.27-0.12-0.49-0.17-0.66c-0.18-0.52-0.43-0.83-0.75-0.91
		c-0.61-0.15-1.1,0.3-1.47,1.34c-0.13,0.35-0.25,0.77-0.35,1.28l-0.06,0.3c-0.01,0.07-0.03,0.16-0.04,0.26
		c-0.04,0.21-0.06,0.34-0.08,0.4c-0.27,1.19-0.24,2.02,0.1,2.48C128.56,74.02,129.35,74.16,130.56,73.92
		c0.08-0.02,0.07-0.03-0.01-0.01c-0.06,0.02-0.15,0.03-0.26,0.06c-0.11,0.02-0.15,0.03-0.12,0.03
		C130.19,73.99,130.32,73.97,130.56,73.92z"/>
	<path d="M146.39,62.73c0.21,0.21,0.29,0.29,0.25,0.25C146.62,62.95,146.54,62.86,146.39,62.73c-0.14-0.14-0.22-0.23-0.25-0.26
		S146.2,62.52,146.39,62.73c1.24,1.25,1.9,2.8,1.98,4.64c0.09,1.94-0.53,3.46-1.87,4.54c-0.93,0.98-2.15,1.5-3.64,1.55
		c-1.13,0.04-2.47-0.2-4.02-0.72c0,0.39,0.15,1.06,0.46,1.99l0.1,0.3l0.09,0.3l0.22,0.62c0.15,0.49,0.27,0.9,0.36,1.25
		c0.24,0.95,0.3,1.71,0.16,2.28c-0.17,0.71-0.63,1.18-1.4,1.42c-0.87,0.27-1.56-0.38-2.05-1.94c-0.17-0.53-0.32-1.16-0.43-1.89
		c-0.04-0.26-0.09-0.53-0.12-0.82c-0.01-0.11-0.02-0.22-0.03-0.33l-0.02-0.15l-0.01-0.12c-0.02-0.14-0.04-0.35-0.07-0.63l-0.03-0.33
		l-0.04-0.35c-0.06-0.55-0.11-1.04-0.15-1.46c-0.11-1.18-0.16-2.23-0.16-3.14c0-2.5,0.42-4.36,1.26-5.56
		c0.46-0.65,1.09-1.22,1.9-1.7c0.79-0.46,1.65-0.79,2.57-0.97c0.95-0.18,1.84-0.18,2.69,0.01
		C145.04,61.72,145.79,62.12,146.39,62.73z M145.58,68.52c0.02-0.12,0.03-0.25,0.03-0.39c-0.02-0.96-0.57-1.72-1.67-2.3
		c-0.9-0.48-1.88-0.72-2.93-0.73c-0.4,0-0.78,0.31-1.13,0.92c-0.3,0.52-0.48,1.02-0.52,1.48c-0.09,0.93-0.07,1.58,0.07,1.92
		c0.22,0.56,0.77,0.9,1.64,1c0.87,0.25,1.77,0.21,2.71-0.11C144.85,69.97,145.45,69.37,145.58,68.52z"/>
	<path d="M159.27,72.71c0.03,0.17,0.09,0.45,0.17,0.84l0.06,0.28l0.07,0.3c0.06,0.26,0.11,0.47,0.15,0.65
		c0.25,1.18,0.42,2.17,0.51,2.96c0.28,2.55-0.18,3.85-1.38,3.88c-0.73-0.02-1.12-0.41-1.18-1.17c-0.02-0.25-0.01-0.58,0.05-1
		l0.03-0.24l0.03-0.25c0.03-0.19,0.05-0.33,0.06-0.43c0.08-0.87-0.11-1.48-0.58-1.81c-0.36-0.25-1-0.39-1.92-0.41
		c-0.05,0-0.11,0-0.19-0.01h-0.1h-0.13c-0.21-0.01-0.39-0.01-0.55-0.01c-0.49-0.01-0.92,0-1.29,0.01c-1.09,0.07-1.77,0.26-2.05,0.57
		c-0.22,0.24-0.43,0.56-0.62,0.95l-0.23,0.5l-0.22,0.5c-0.37,0.79-0.89,1.33-1.56,1.61c-0.7,0.29-1.17,0.21-1.41-0.24
		c-0.21-0.4-0.21-0.96,0.01-1.69c0.32-1.08,0.78-2.41,1.38-4l0.76-1.99c0.3-0.79,0.55-1.45,0.74-1.97l0.08-0.21l0.08-0.23
		c0.07-0.19,0.13-0.36,0.18-0.5c0.16-0.42,0.31-0.81,0.46-1.15c0.41-0.96,0.83-1.76,1.26-2.39c1.23-1.78,2.57-2.21,4.02-1.31
		c0.94,0.58,1.72,1.79,2.33,3.61c0.23,0.68,0.43,1.45,0.61,2.31C159.04,71.3,159.16,71.98,159.27,72.71z M155.46,73.92
		c0.89-0.27,1.3-0.86,1.23-1.79c-0.02-0.33-0.11-0.76-0.25-1.28l-0.1-0.32l-0.1-0.32c-0.08-0.27-0.14-0.48-0.18-0.62
		c-0.02-0.07-0.04-0.16-0.07-0.27l-0.03-0.15l-0.03-0.16c-0.06-0.27-0.12-0.49-0.17-0.66c-0.18-0.52-0.43-0.83-0.75-0.91
		c-0.61-0.15-1.1,0.3-1.47,1.34c-0.13,0.35-0.25,0.77-0.35,1.28l-0.06,0.3c-0.01,0.07-0.03,0.16-0.04,0.26
		c-0.04,0.21-0.06,0.34-0.08,0.4c-0.27,1.19-0.24,2.02,0.1,2.48C153.47,74.02,154.26,74.16,155.46,73.92
		c0.08-0.02,0.07-0.03-0.01-0.01c-0.06,0.02-0.15,0.03-0.26,0.06c-0.11,0.02-0.15,0.03-0.12,0.03
		C155.09,73.99,155.23,73.97,155.46,73.92z"/>
	<path d="M172.74,66.47c1.7,1.43,2.54,3.26,2.52,5.48c-0.02,1.34-0.35,2.57-0.99,3.7c-0.68,1.18-1.6,2.07-2.77,2.65
		c-2.18,1.08-4.97,1.62-8.36,1.62c-1.09,0-1.7-0.46-1.83-1.39c-0.04-0.31-0.04-0.76,0-1.33l0.03-0.35l0.03-0.35
		c0.02-0.27,0.02-0.49,0.02-0.68c0-0.32,0-0.69,0.01-1.12l0.03-1.15c0.02-0.99,0.03-1.77,0.02-2.33c-0.02-1.83-0.19-3.34-0.5-4.53
		c-0.43-1.59,0.39-2.5,2.44-2.72c0.71-0.08,1.56-0.06,2.54,0.03c0.37,0.04,0.75,0.09,1.14,0.15c0.29,0.05,0.57,0.1,0.85,0.15
		C169.86,64.66,171.46,65.39,172.74,66.47z M166.08,76.89c1.74-0.12,3.16-0.76,4.26-1.91c1.09-1.16,1.64-2.6,1.64-4.3
		c0.02-1.13-0.48-2.03-1.48-2.69c-0.85-0.56-1.87-0.86-3.05-0.9c-1.32-0.05-2.21,0.4-2.68,1.34c-0.19,0.38-0.33,0.87-0.41,1.47
		c-0.03,0.24-0.06,0.52-0.09,0.84l-0.03,0.43l-0.02,0.43c-0.01,0.12-0.03,0.35-0.06,0.69l-0.03,0.4l-0.03,0.43
		c-0.05,0.71-0.05,1.31,0.01,1.78C164.27,76.31,164.93,76.97,166.08,76.89z"/>
	<path d="M186.57,75.93c0.11,0.03,0.16,0.05,0.16,0.06l-0.09-0.01c-0.05-0.01-0.09-0.02-0.11-0.02
		C186.5,75.93,186.51,75.93,186.57,75.93c0.73,0.2,1.13,0.62,1.21,1.28c0.08,0.65-0.2,1.16-0.82,1.55
		c-0.83,0.51-1.82,0.88-2.98,1.13c-2.63,0.53-4.62-0.25-5.97-2.33c-0.56-0.88-0.96-1.89-1.2-3.04c-0.23-1.13-0.27-2.27-0.12-3.42
		c0.15-1.19,0.49-2.27,1.01-3.22c0.56-1.03,1.3-1.85,2.22-2.45c0.8-0.53,1.63-0.8,2.47-0.82c0.8-0.02,1.51,0.2,2.13,0.64
		c0.62,0.44,1.06,1.04,1.31,1.8c0.27,0.81,0.28,1.7,0.05,2.66c-0.35,1.38-1.13,2.49-2.35,3.35c-1.17,0.82-2.47,1.23-3.91,1.22
		c0.12,0.58,0.44,1.12,0.95,1.61c0.48,0.46,1.02,0.78,1.63,0.95c0.64,0.17,1.39,0.09,2.24-0.26l0.5-0.22
		c0.21-0.09,0.38-0.16,0.52-0.21C185.86,75.99,186.23,75.93,186.57,75.93z M179.26,72.51l0.33-0.06l0.33-0.07
		c0.28-0.05,0.5-0.09,0.66-0.13c0.51-0.12,0.92-0.29,1.23-0.5c0.6-0.41,1.13-0.98,1.61-1.7c0.57-0.88,0.72-1.61,0.47-2.19
		c-0.24-0.52-0.79-0.6-1.65-0.26c-0.77,0.3-1.3,0.66-1.61,1.08c-0.38,0.55-0.7,1.15-0.97,1.82
		C179.33,71.33,179.2,71.99,179.26,72.51z"/>
	<path d="M197.36,76.2c0.43,0,0.81,0.11,1.14,0.32c0.3,0.19,0.49,0.44,0.59,0.74c0.1,0.31,0.07,0.61-0.09,0.89
		c-0.17,0.31-0.48,0.56-0.92,0.74c0,0.08-0.35,0.19-1.05,0.32c-0.24,0.04-0.51,0.08-0.8,0.12c-0.11,0.02-0.22,0.03-0.32,0.05
		c-0.08,0.01-0.15,0.03-0.21,0.03c-2.46,0.32-4.49,0.36-6.1,0.14c-1.18-0.16-1.59-2.08-1.23-5.77c0.11-1.21,0.31-2.57,0.59-4.1
		c0.09-0.49,0.19-1.02,0.31-1.57c0.02-0.09,0.03-0.19,0.06-0.31l0.02-0.14l0.03-0.12c0.04-0.18,0.06-0.31,0.07-0.38
		c0.04-0.2,0.08-0.37,0.11-0.51c0.04-0.21,0.08-0.39,0.14-0.57c0.12-0.47,0.26-0.88,0.42-1.22c0.44-0.92,1.01-1.38,1.71-1.38
		c0.51,0,0.88,0.2,1.12,0.59c0.21,0.33,0.3,0.75,0.25,1.26c-0.11,1.38-0.62,3.32-1.5,5.81l-0.14,0.39l-0.15,0.4
		c-0.1,0.31-0.18,0.59-0.25,0.83c-0.17,0.64-0.25,1.17-0.24,1.61c0.04,1.15,0.73,1.73,2.07,1.73l1.08,0.01l1.09,0.05
		C196.15,76.18,196.88,76.2,197.36,76.2z"/>
</g>
</svg>
