<?xml version="1.0" encoding="utf-8"?>
<!-- Generator: Adobe Illustrator 28.1.0, SVG Export Plug-In . SVG Version: 6.00 Build 0)  -->
<svg version="1.1" id="Capa_1" xmlns="http://www.w3.org/2000/svg" xmlns:xlink="http://www.w3.org/1999/xlink" x="0px" y="0px"
	 viewBox="0 0 595.28 841.89" style="enable-background:new 0 0 595.28 841.89;" xml:space="preserve">
<style type="text/css">
	.st0{fill:#6CC8F2;}
	.st1{fill:#F7A416;}
</style>
<path class="st0" d="M515.6,228.97c40.25,185.67-141.95,313.23-147.77,315.34c-7.9,2.87-16.07,5.38-16.07,5.38c0,0,0,0,0,0
	c-12.09,3.72,68.5,215.1,3.73,273.52c-26.64,24.03-81.43,25.4-109.61,1.07c-65.03-56.13,26.31-236.54-34.87-272.15
	c-8.54-4.97-15.23-0.67-17.75-5.2c-14.47-26.01,210.26-114.5,232.08-245.43C449.61,155.83,211.55,24.62,227.61,3.31
	C242.34-16.25,476.78,49.91,515.6,228.97z"/>
<circle class="st1" cx="219" cy="263.79" r="83.01"/>
</svg>
